<svg width="28" height="20" viewBox="0 0 28 20" fill="none" xmlns="http://www.w3.org/2000/svg">
<path fill-rule="evenodd" clip-rule="evenodd" d="M0 0.666668V19.3333H28V0.666668H0ZM4.82708 16.8453L4.82709 3.15639L3.82708 3.15639L3.82708 16.8453H4.82708ZM7.24245 3.15639L7.24245 16.8453H6.24245L6.24245 3.15639L7.24245 3.15639ZM9.65417 16.8453L9.65417 3.15639L8.65417 3.15639L8.65417 16.8453H9.65417ZM12.0677 3.15639L12.0677 16.8453H11.0677L11.0677 3.15639L12.0677 3.15639ZM14.4831 16.8453L14.4831 3.15639L13.4831 3.15639L13.4831 16.8453H14.4831ZM16.8948 3.15639L16.8948 16.8453H15.8948L15.8948 3.15639L16.8948 3.15639ZM19.3102 16.8453L19.3102 3.15639L18.3102 3.15639L18.3102 16.8453H19.3102ZM21.7237 3.15639L21.7237 16.8453H20.7237L20.7237 3.15639L21.7237 3.15639ZM24.1372 16.8453L24.1372 3.15639L23.1372 3.15639L23.1372 16.8453H24.1372Z" fill="#959595"/>
</svg>
