<svg width="16" height="24" viewBox="0 0 16 24" fill="none" xmlns="http://www.w3.org/2000/svg">
<path d="M4.50586 8.41279V1.95097C4.50586 1.30664 5.02819 0.784302 5.67253 0.784302H10.9923C11.6366 0.784302 12.1589 1.30664 12.1589 1.95097V8.41279" stroke="#959595" stroke-width="1.16667" stroke-linecap="round" stroke-linejoin="round"/>
<path d="M0.679321 9.57951V15.5991V19.6927C0.679321 20.337 1.20166 20.8593 1.846 20.8593H2.59259C3.23034 20.8593 3.04999 19.2701 4.82473 19.2701C6.59947 19.2701 6.41912 20.8593 7.05687 20.8593H9.60789C10.2456 20.8593 10.0868 19.2701 11.84 19.2701C13.5933 19.2701 13.4344 20.8593 14.0722 20.8593H14.8188C15.4631 20.8593 15.9854 20.337 15.9854 19.6927V16.7047V9.57951C15.9854 8.93518 15.4631 8.41284 14.8188 8.41284H1.84599C1.20166 8.41284 0.679321 8.93518 0.679321 9.57951Z" fill="#959595"/>
<ellipse cx="4.82473" cy="21.4447" rx="1.59439" ry="1.58927" fill="#959595"/>
<ellipse cx="11.84" cy="21.4447" rx="1.59439" ry="1.58927" fill="#959595"/>
</svg>
