<svg width="26" height="26" viewBox="0 0 26 26" fill="none" xmlns="http://www.w3.org/2000/svg">
<path fill-rule="evenodd" clip-rule="evenodd" d="M13 26C20.1797 26 26 20.1797 26 13C26 5.8203 20.1797 0 13 0C5.8203 0 0 5.8203 0 13C0 20.1797 5.8203 26 13 26ZM11.8392 6.03571C11.8392 5.72787 11.9615 5.43264 12.1792 5.21496C12.1792 5.21496 12.5357 4.875 12.9999 4.875C13.4642 4.875 13.8207 5.21496 13.8207 5.21496C14.0384 5.43264 14.1607 5.72787 14.1607 6.03571V7.19642H15.3214H16.4821C16.7899 7.19642 17.0852 7.31871 17.3028 7.53639C17.5205 7.75407 17.6428 8.0493 17.6428 8.35714C17.6428 8.66498 17.5205 8.96021 17.3028 9.17789C17.0852 9.39557 16.7899 9.51785 16.4821 9.51785H11.8392C11.5314 9.51785 11.2362 9.64014 11.0185 9.85782C10.8008 10.0755 10.6785 10.3707 10.6785 10.6786C10.6785 10.9864 10.8008 11.2816 11.0185 11.4993C11.2362 11.717 11.5314 11.8393 11.8392 11.8393H14.1607C15.0842 11.8393 15.9699 12.2061 16.6229 12.8592C17.2759 13.5122 17.6428 14.3979 17.6428 15.3214C17.6428 16.2449 17.2759 17.1306 16.6229 17.7837C15.9699 18.4367 15.0842 18.8036 14.1607 18.8036V19.9643C14.1607 20.2721 14.0384 20.5674 13.8207 20.785C13.603 21.0027 13.3078 21.125 12.9999 21.125C12.6921 21.125 12.3969 21.0027 12.1792 20.785C11.9615 20.5674 11.8392 20.2721 11.8392 19.9643V18.8036H10.6785H9.5178C9.20996 18.8036 8.91473 18.6813 8.69705 18.4636C8.47938 18.2459 8.35709 17.9507 8.35709 17.6429C8.35709 17.335 8.47938 17.0398 8.69705 16.8221C8.91473 16.6044 9.20996 16.4821 9.5178 16.4821H14.1607C14.4685 16.4821 14.7637 16.3598 14.9814 16.1422C15.1991 15.9245 15.3214 15.6293 15.3214 15.3214C15.3214 15.0136 15.1991 14.7184 14.9814 14.5007C14.7637 14.283 14.4685 14.1607 14.1607 14.1607H11.8392C10.9157 14.1607 10.03 13.7938 9.37699 13.1408C8.72396 12.4878 8.35709 11.6021 8.35709 10.6786C8.35709 9.75505 8.72396 8.86935 9.37699 8.21632C10.03 7.56329 10.9157 7.19642 11.8392 7.19642V6.03571Z" fill="#959595"/>
</svg>
